<?xml version="1.0" standalone="no"?>
<!DOCTYPE svg PUBLIC "-//W3C//DTD SVG 20010904//EN"
 "http://www.w3.org/TR/2001/REC-SVG-20010904/DTD/svg10.dtd">
<svg version="1.0" xmlns="http://www.w3.org/2000/svg"
 width="98.000000pt" height="98.000000pt" viewBox="0 0 98.000000 98.000000"
 preserveAspectRatio="xMidYMid meet">
<metadata>
Created by potrace 1.11, written by Peter Selinger 2001-2013
</metadata>
<g transform="translate(0.000000,98.000000) scale(0.100000,-0.100000)"
fill="#000000" stroke="none">
<path d="M318 964 c-21 -9 -38 -20 -38 -24 0 -5 17 -14 38 -20 20 -7 57 -23
81 -36 27 -15 52 -22 64 -18 11 3 37 6 58 6 l39 -1 -13 31 c-7 17 -25 41 -40
52 -36 27 -137 32 -189 10z"/>
<path d="M680 922 c-18 -10 -39 -29 -47 -43 -15 -25 -14 -27 31 -73 42 -41 49
-45 69 -35 38 20 57 50 57 88 0 46 -9 59 -47 70 -24 7 -40 5 -63 -7z m25 -12
c-3 -5 -11 -10 -16 -10 -6 0 -7 5 -4 10 3 6 11 10 16 10 6 0 7 -4 4 -10z m68
-75 c-3 -9 -8 -14 -10 -11 -3 3 -2 9 2 15 9 16 15 13 8 -4z"/>
<path d="M454 838 c-7 -11 -1 -19 20 -22 41 -6 146 -100 197 -176 28 -42 46
-40 30 2 -30 79 -224 233 -247 196z"/>
<path d="M540 840 c0 -5 5 -10 11 -10 17 0 99 -71 126 -110 l25 -35 -7 30
c-10 43 -46 87 -95 113 -46 24 -60 27 -60 12z"/>
<path d="M390 812 c0 -5 17 -17 38 -28 20 -10 39 -22 42 -25 3 -3 16 -12 28
-18 37 -19 102 -82 102 -97 0 -10 -13 -14 -42 -14 -100 0 -157 -38 -205 -136
-19 -40 -24 -57 -15 -66 8 -8 17 2 33 38 49 106 82 131 173 135 35 2 66 9 78
18 19 16 19 17 -4 51 -13 19 -43 49 -68 67 -25 18 -49 37 -55 41 -16 11 -85
42 -95 42 -6 0 -10 -4 -10 -8z"/>
<path d="M346 773 c-12 -12 -6 -23 12 -23 23 0 125 -53 129 -67 2 -6 -11 -13
-29 -17 -63 -12 -168 -125 -168 -182 0 -35 18 -38 25 -5 7 31 56 106 84 129
28 22 83 42 117 42 38 0 47 22 15 40 -11 5 -25 16 -33 22 -35 34 -138 75 -152
61z"/>
<path d="M314 728 c-8 -12 14 -28 38 -28 9 0 20 -4 23 -10 3 -5 2 -10 -3 -10
-5 0 -30 -20 -56 -45 -33 -33 -46 -53 -45 -73 0 -25 1 -25 12 -8 20 32 88 96
118 112 47 24 40 36 -36 58 -30 9 -47 11 -51 4z"/>
<path d="M298 683 c-16 -19 -31 -53 -23 -53 12 0 55 45 55 57 0 18 -14 16 -32
-4z"/>
<path d="M729 668 c0 -18 -3 -45 -5 -60 -3 -16 3 -39 12 -54 10 -14 25 -49 34
-77 9 -29 21 -52 26 -52 14 0 35 53 41 103 6 65 -14 121 -56 149 -45 30 -51
29 -52 -9z"/>
<path d="M177 632 c-24 -26 -31 -73 -15 -95 12 -17 15 -16 48 8 28 21 35 34
38 65 3 38 2 40 -26 40 -16 0 -36 -8 -45 -18z"/>
<path d="M536 578 c-32 -4 -65 -13 -74 -20 -24 -20 -59 -81 -67 -116 -11 -51
11 -38 38 22 14 30 36 62 50 71 22 14 86 23 175 25 21 0 32 5 32 14 0 16 -49
17 -154 4z"/>
<path d="M532 523 c-33 -12 -47 -24 -62 -54 -22 -42 -25 -59 -10 -59 5 0 18
17 29 39 23 43 32 49 104 57 56 7 67 11 67 23 0 13 -82 9 -128 -6z"/>
<path d="M555 480 c-27 -10 -48 -36 -43 -51 3 -8 9 -6 21 5 9 9 26 19 37 21
33 6 44 16 29 26 -16 10 -18 10 -44 -1z"/>
<path d="M263 425 c-7 -20 0 -27 20 -19 9 3 13 12 10 20 -7 19 -22 18 -30 -1z"/>
<path d="M458 392 c-22 -2 -38 -9 -38 -15 0 -7 -9 -19 -20 -27 -28 -20 -25
-36 8 -48 48 -17 101 17 102 65 0 27 -5 29 -52 25z"/>
<path d="M163 233 c-9 -3 -13 -32 -13 -94 0 -82 2 -92 25 -114 27 -28 75 -34
75 -10 0 8 -12 18 -26 21 -24 6 -47 40 -37 57 2 4 18 7 34 7 24 0 30 4 27 18
-2 12 -13 17 -33 17 -29 0 -30 2 -31 48 -2 53 -3 56 -21 50z"/>
<path d="M458 230 c-11 -7 -15 -19 -12 -35 2 -14 1 -25 -3 -26 -72 -5 -90 -11
-111 -34 -32 -37 -19 -104 24 -123 40 -19 73 -14 99 14 23 25 25 35 25 120 0
52 -1 94 -2 94 -2 0 -11 -5 -20 -10z m-11 -137 c-6 -42 -32 -66 -61 -57 -25 8
-36 22 -36 50 0 30 19 44 63 44 l39 0 -5 -37z"/>
<path d="M265 209 c-4 -6 -1 -15 6 -20 21 -13 31 -11 27 8 -4 20 -24 28 -33
12z"/>
<path d="M269 168 c-1 -1 -2 -40 -3 -85 -1 -74 1 -83 17 -83 16 0 18 8 15 82
-2 54 -7 83 -15 86 -7 2 -14 2 -14 0z"/>
<path d="M552 162 c-31 -5 -64 -59 -57 -92 10 -45 50 -70 111 -70 30 0 54 5
55 10 0 6 1 26 1 45 0 52 0 51 -27 84 -25 29 -32 31 -83 23z m65 -55 c6 -12
10 -34 9 -47 -1 -22 -5 -25 -40 -23 -41 1 -56 14 -56 49 0 46 68 63 87 21z"/>
<path d="M688 148 c-38 -38 1 -88 64 -83 41 3 73 -19 41 -29 -10 -3 -31 -4
-48 -2 -34 4 -69 -10 -60 -25 4 -5 35 -9 70 -9 53 0 66 3 75 19 25 48 -1 81
-65 81 -40 0 -65 13 -51 27 3 3 28 5 55 5 35 -1 51 3 55 13 6 18 7 17 -63 20
-41 2 -58 -2 -73 -17z"/>
</g>
</svg>
